<svg width="24" height="24" viewBox="0 0 24 24" fill="none" xmlns="http://www.w3.org/2000/svg">
<path d="M19.7979 18.4275L13.0845 12L19.7979 5.5725C19.8017 5.56821 19.8058 5.56414 19.8101 5.56031C20.0197 5.35054 20.1625 5.08332 20.2203 4.79244C20.2781 4.50156 20.2484 4.20007 20.135 3.92607C20.0215 3.65207 19.8293 3.41785 19.5828 3.25302C19.3362 3.08819 19.0464 3.00014 18.7498 3H5.24979C4.95322 3.00014 4.66335 3.08819 4.4168 3.25302C4.17026 3.41785 3.9781 3.65207 3.86463 3.92607C3.75116 4.20007 3.72145 4.50156 3.77927 4.79244C3.83709 5.08332 3.97984 5.35054 4.18948 5.56031C4.19378 5.56414 4.19784 5.56821 4.20167 5.5725L10.9151 12L4.20167 18.4275C4.19784 18.4318 4.19378 18.4359 4.18948 18.4397C3.97984 18.6495 3.83709 18.9167 3.77927 19.2076C3.72145 19.4984 3.75116 19.7999 3.86463 20.0739C3.9781 20.3479 4.17026 20.5822 4.4168 20.747C4.66335 20.9118 4.95322 20.9999 5.24979 21H18.7498C19.0464 21 19.3364 20.9121 19.5831 20.7474C19.8298 20.5826 20.0221 20.3484 20.1357 20.0744C20.2493 19.8003 20.2791 19.4988 20.2213 19.2078C20.1635 18.9168 20.0207 18.6495 19.811 18.4397C19.8064 18.4359 19.802 18.4318 19.7979 18.4275ZM18.7498 4.5L16.3985 6.75H7.60104L5.24979 4.5H18.7498ZM5.24979 19.5L11.2498 13.7569V15.75C11.2498 15.9489 11.3288 16.1397 11.4695 16.2803C11.6101 16.421 11.8009 16.5 11.9998 16.5C12.1987 16.5 12.3895 16.421 12.5301 16.2803C12.6708 16.1397 12.7498 15.9489 12.7498 15.75V13.7569L18.7498 19.5H5.24979Z" fill="white"/>
</svg>
