<svg width="24" height="24" viewBox="0 0 24 24" fill="none" xmlns="http://www.w3.org/2000/svg">
<path d="M22.0537 7.91059L19.4231 10.1306L20.2256 13.4484C20.2838 13.6886 20.2695 13.9407 20.1846 14.1728C20.0997 14.4048 19.9479 14.6066 19.7484 14.7525C19.5465 14.9008 19.3053 14.9861 19.055 14.9976C18.8048 15.0091 18.5567 14.9463 18.3421 14.8172L15.3749 13.0312L12.4077 14.8181C12.1932 14.9476 11.9451 15.0106 11.6948 14.9991C11.4445 14.9876 11.2032 14.9021 11.0015 14.7534C10.8016 14.6078 10.6495 14.4061 10.5644 14.174C10.4793 13.9418 10.465 13.6896 10.5234 13.4493L11.3259 10.1315L8.69618 7.91059C8.50574 7.74962 8.36756 7.53558 8.29925 7.29576C8.23094 7.05594 8.23561 6.80121 8.31265 6.56405C8.38969 6.32689 8.53562 6.11805 8.73182 5.96416C8.92803 5.81026 9.16562 5.71829 9.4143 5.69997L12.8774 5.42622L14.2096 2.27059C14.3069 2.04207 14.4693 1.84721 14.6765 1.71024C14.8837 1.57327 15.1266 1.50024 15.3749 1.50024C15.6233 1.50024 15.8662 1.57327 16.0734 1.71024C16.2806 1.84721 16.4429 2.04207 16.5402 2.27059L17.8724 5.42622L21.3356 5.69997C21.5842 5.71829 21.8218 5.81026 22.018 5.96416C22.2142 6.11805 22.3602 6.32689 22.4372 6.56405C22.5143 6.80121 22.5189 7.05594 22.4506 7.29576C22.3823 7.53558 22.2441 7.74962 22.0537 7.91059ZM8.26024 10.4897C8.19059 10.4199 8.10787 10.3646 8.01682 10.3269C7.92577 10.2891 7.82818 10.2697 7.72962 10.2697C7.63105 10.2697 7.53346 10.2891 7.44241 10.3269C7.35136 10.3646 7.26865 10.4199 7.19899 10.4897L1.7193 15.9693C1.57857 16.1101 1.49951 16.3009 1.49951 16.5C1.49951 16.699 1.57857 16.8899 1.7193 17.0306C1.86003 17.1713 2.05091 17.2504 2.24993 17.2504C2.44895 17.2504 2.63982 17.1713 2.78055 17.0306L8.26024 11.5509C8.32997 11.4813 8.38529 11.3985 8.42304 11.3075C8.46078 11.2164 8.48021 11.1188 8.48021 11.0203C8.48021 10.9217 8.46078 10.8241 8.42304 10.7331C8.38529 10.642 8.32997 10.5593 8.26024 10.4897ZM8.21337 16.2262L3.2193 21.2193C3.14962 21.289 3.09435 21.3718 3.05663 21.4628C3.01892 21.5538 2.99951 21.6514 2.99951 21.75C2.99951 21.8485 3.01892 21.9461 3.05663 22.0371C3.09435 22.1282 3.14962 22.2109 3.2193 22.2806C3.36003 22.4213 3.55091 22.5004 3.74993 22.5004C3.84847 22.5004 3.94606 22.481 4.0371 22.4433C4.12815 22.4056 4.21087 22.3503 4.28055 22.2806L9.27368 17.2865C9.40839 17.1447 9.48239 16.9559 9.47988 16.7603C9.47738 16.5648 9.39858 16.3779 9.26027 16.2396C9.12197 16.1013 8.93512 16.0225 8.73955 16.02C8.54397 16.0175 8.35516 16.0915 8.21337 16.2262ZM15.0571 16.1325L9.96743 21.2212C9.89775 21.2909 9.84247 21.3736 9.80476 21.4647C9.76705 21.5557 9.74764 21.6533 9.74764 21.7518C9.74764 21.8504 9.76705 21.948 9.80476 22.039C9.84247 22.1301 9.89775 22.2128 9.96743 22.2825C10.1082 22.4232 10.299 22.5023 10.4981 22.5023C10.5966 22.5023 10.6942 22.4828 10.7852 22.4451C10.8763 22.4074 10.959 22.3521 11.0287 22.2825L16.1174 17.1937C16.2582 17.0531 16.3373 16.8624 16.3374 16.6634C16.3374 16.4645 16.2585 16.2737 16.1179 16.1329C15.9773 15.9922 15.7865 15.9131 15.5876 15.913C15.3887 15.9129 15.1978 15.9919 15.0571 16.1325Z" fill="white"/>
</svg>
