<svg width="24" height="24" viewBox="0 0 24 24" fill="none" xmlns="http://www.w3.org/2000/svg">
<path d="M20.5 11.7505C20.5006 12.0051 20.4353 12.2556 20.3105 12.4775C20.1856 12.6995 20.0055 12.8853 19.7875 13.017L6.28 21.2802C6.05227 21.4196 5.79144 21.4957 5.52445 21.5007C5.25746 21.5056 4.99399 21.4392 4.76125 21.3083C4.53073 21.1794 4.3387 20.9914 4.2049 20.7637C4.07111 20.536 4.00039 20.2768 4 20.0127V3.48828C4.00039 3.22417 4.07111 2.96493 4.2049 2.73722C4.3387 2.50951 4.53073 2.32155 4.76125 2.19266C4.99399 2.06173 5.25746 1.99531 5.52445 2.00026C5.79144 2.0052 6.05227 2.08133 6.28 2.22078L19.7875 10.4839C20.0055 10.6156 20.1856 10.8015 20.3105 11.0234C20.4353 11.2453 20.5006 11.4958 20.5 11.7505Z" fill="white"/>
</svg>
