<svg width="24" height="24" viewBox="0 0 24 24" fill="none" xmlns="http://www.w3.org/2000/svg">
<path fill-rule="evenodd" clip-rule="evenodd" d="M9.00049 14.2507C9.41448 14.251 9.75049 14.5867 9.75049 15.0007V20.3337C9.75029 20.7476 9.41436 21.0835 9.00049 21.0837C8.5864 21.0837 8.25069 20.7478 8.25049 20.3337V15.7507H3.66748C3.25349 15.7507 2.91785 15.4146 2.91748 15.0007C2.91748 14.5865 3.25327 14.2507 3.66748 14.2507H9.00049ZM20.3335 14.2498C20.7476 14.2498 21.0833 14.5857 21.0835 14.9998C21.0833 15.4138 20.7476 15.7498 20.3335 15.7498H15.7505V20.3328C15.7505 20.747 15.4147 21.0828 15.0005 21.0828C14.5863 21.0828 14.2505 20.747 14.2505 20.3328V14.9998C14.2507 14.5857 14.5864 14.2498 15.0005 14.2498H20.3335ZM9.00049 2.91772C9.4147 2.91772 9.75049 3.25351 9.75049 3.66772V9.00073C9.75022 9.41472 9.41454 9.75073 9.00049 9.75073H3.66748C3.25343 9.75073 2.91774 9.41472 2.91748 9.00073C2.91748 8.58652 3.25327 8.25073 3.66748 8.25073H8.25049V3.66772C8.25049 3.25362 8.58642 2.91789 9.00049 2.91772ZM15.0015 2.91675C15.4152 2.91718 15.7513 3.25297 15.7515 3.66675V8.24976H20.3345C20.7483 8.25002 21.0843 8.58587 21.0845 8.99976C21.0845 9.41381 20.7485 9.74949 20.3345 9.74976H15.0015C14.5873 9.74976 14.2515 9.41397 14.2515 8.99976V3.66675C14.2517 3.2527 14.5874 2.91675 15.0015 2.91675Z" fill="white"/>
</svg>
