<svg width="24" height="24" viewBox="0 0 24 24" fill="none" xmlns="http://www.w3.org/2000/svg">
<path fill-rule="evenodd" clip-rule="evenodd" d="M4.00098 13.917C4.41497 13.9173 4.75098 14.2529 4.75098 14.667V19.25H9.33398C9.74787 19.2503 10.0838 19.5861 10.084 20C10.0838 20.4139 9.74785 20.7497 9.33398 20.75H4.00098C3.58689 20.75 3.25117 20.414 3.25098 20V14.667C3.25098 14.2528 3.58676 13.917 4.00098 13.917ZM20.001 13.917C20.415 13.9173 20.751 14.2529 20.751 14.667V20C20.7508 20.4139 20.4148 20.7497 20.001 20.75H14.668C14.2539 20.75 13.9182 20.414 13.918 20C13.9181 19.5859 14.2539 19.25 14.668 19.25H19.251V14.667C19.251 14.2528 19.5868 13.917 20.001 13.917ZM9.33398 3.25C9.74797 3.25026 10.084 3.58595 10.084 4C10.084 4.41405 9.74797 4.74974 9.33398 4.75H4.75098V9.33301C4.75098 9.74695 4.41482 10.0826 4.00098 10.083C3.58676 10.083 3.25098 9.74722 3.25098 9.33301V4C3.25098 3.58579 3.58676 3.25 4.00098 3.25H9.33398ZM20 3.25C20.4142 3.25 20.75 3.58579 20.75 4V9.33301C20.75 9.74722 20.4142 10.083 20 10.083C19.5859 10.0828 19.25 9.74712 19.25 9.33301V4.75H14.667C14.2528 4.75 13.917 4.41421 13.917 4C13.917 3.58579 14.2528 3.25 14.667 3.25H20Z" fill="white"/>
</svg>
