<svg width="24" height="24" viewBox="0 0 24 24" fill="none" xmlns="http://www.w3.org/2000/svg">
<path d="M21 4.50001V9.00001C21 9.19892 20.921 9.38968 20.7803 9.53034C20.6397 9.67099 20.4489 9.75001 20.25 9.75001H15.75C15.6016 9.75012 15.4565 9.7062 15.333 9.6238C15.2096 9.54139 15.1133 9.42422 15.0565 9.2871C14.9997 9.14998 14.9849 8.99909 15.0139 8.85353C15.0428 8.70796 15.1144 8.57427 15.2194 8.46938L16.9359 6.75001C15.5551 5.42695 13.7183 4.68548 11.8059 4.67907H11.7638C9.80414 4.67523 7.92181 5.44311 6.52406 6.81657C6.38083 6.95028 6.19096 7.02262 5.99507 7.01813C5.79918 7.01363 5.61283 6.93266 5.47588 6.79252C5.33893 6.65239 5.26226 6.46423 5.26227 6.26829C5.26228 6.07234 5.33897 5.88419 5.47594 5.74407C7.14785 4.11055 9.38972 3.19157 11.7271 3.1816C14.0646 3.17163 16.3142 4.07144 18 5.69063L19.7213 3.96938C19.8262 3.86501 19.9598 3.79405 20.105 3.76543C20.2503 3.73681 20.4007 3.75182 20.5375 3.80856C20.6742 3.86529 20.7911 3.96123 20.8734 4.08427C20.9557 4.20732 20.9997 4.35197 21 4.50001ZM17.4759 17.1834C16.0867 18.5403 14.2253 19.3055 12.2834 19.3179C10.3415 19.3303 8.47053 18.589 7.06406 17.25L8.78063 15.5334C8.88661 15.4287 8.95899 15.2948 8.98853 15.1487C9.01808 15.0027 9.00346 14.8511 8.94653 14.7134C8.8896 14.5757 8.79294 14.4581 8.66889 14.3756C8.54483 14.293 8.399 14.2493 8.25 14.25H3.75C3.55109 14.25 3.36032 14.329 3.21967 14.4697C3.07902 14.6103 3 14.8011 3 15V19.5C2.99988 19.6484 3.04381 19.7935 3.12621 19.917C3.20861 20.0404 3.32579 20.1367 3.46291 20.1935C3.60002 20.2503 3.75092 20.2651 3.89648 20.2362C4.04204 20.2072 4.17573 20.1356 4.28063 20.0306L6 18.3094C7.66144 19.9128 9.87852 20.8118 12.1875 20.8181H12.2372C14.5885 20.8242 16.8476 19.9037 18.525 18.2559C18.662 18.1158 18.7387 17.9277 18.7387 17.7317C18.7387 17.5358 18.662 17.3476 18.5251 17.2075C18.3881 17.0674 18.2018 16.9864 18.0059 16.9819C17.81 16.9774 17.6201 17.0497 17.4769 17.1834H17.4759Z" fill="white"/>
</svg>
